<svg width="30" height="31" viewBox="0 0 30 31" fill="none" xmlns="http://www.w3.org/2000/svg">
<path fill-rule="evenodd" clip-rule="evenodd" d="M29.654 15.7535C29.4255 15.9902 29.1268 16.1086 28.8281 16.1086C28.5269 16.1086 28.2258 15.9883 27.9968 15.7479L27.0703 14.7754V19.2245C27.0703 19.8994 26.5456 20.4465 25.8984 20.4465C25.2512 20.4465 24.7265 19.8994 24.7265 19.2245V12.3154L15.814 2.96071C15.3767 2.57005 14.7327 2.56858 14.2937 2.95735L5.27173 12.3463C5.27188 12.3513 5.27221 12.3563 5.27253 12.3612L5.27254 12.3612C5.27298 12.368 5.27343 12.3747 5.27343 12.3816V25.3343C5.27343 26.6819 6.32483 27.7782 7.61718 27.7782H22.3828C23.6751 27.7782 24.7265 26.6819 24.7265 25.3343C24.7265 24.6594 25.2512 24.1123 25.8984 24.1123C26.5456 24.1123 27.0703 24.6594 27.0703 25.3343C27.0703 28.0294 24.9675 30.2221 22.3828 30.2221H7.61718C5.03249 30.2221 2.92968 28.0294 2.92968 25.3343V14.7837L1.99968 15.7515C1.54165 16.2282 0.79968 16.2275 0.342415 15.7498C-0.114792 15.2722 -0.11403 14.4985 0.344056 14.0217C0.344056 14.0217 12.6976 1.16645 12.7142 1.15099C14.0526 -0.091492 16.0674 -0.0869708 17.4007 1.16132C17.4172 1.17684 29.6594 14.0254 29.6594 14.0254C30.1156 14.5042 30.1132 15.2778 29.654 15.7535ZM11.6598 19.6213C11.0653 18.8631 10.708 17.8952 10.708 16.8417C10.708 14.4161 12.6005 12.4427 14.9267 12.4427C17.253 12.4427 19.1455 14.4161 19.1455 16.8417C19.1455 17.9009 18.7845 18.8739 18.1842 19.6339C19.0349 20.0582 19.8169 20.6469 20.4804 21.3788C20.925 21.8692 20.9042 22.6426 20.434 23.1062C20.2075 23.3295 19.9179 23.4403 19.6291 23.4403C19.3181 23.4403 19.0078 23.312 18.7773 23.0578C17.7804 21.9583 16.3465 21.3018 14.9414 21.3018C13.4802 21.3018 12.082 21.9196 11.1054 22.9967C10.6608 23.487 9.91921 23.5089 9.44882 23.0451C8.97854 22.5815 8.95774 21.8081 9.40235 21.3177C10.0466 20.6072 10.8155 20.0348 11.6598 19.6213ZM14.9267 18.7968C13.8929 18.7968 13.0517 17.9198 13.0517 16.8417C13.0517 15.7636 13.8929 14.8866 14.9267 14.8866C15.9606 14.8866 16.8017 15.7636 16.8017 16.8417C16.8017 17.9198 15.9606 18.7968 14.9267 18.7968Z" fill="currentColor"/>
</svg>
