<svg width="28" height="29" viewBox="0 0 28 29" fill="none" xmlns="http://www.w3.org/2000/svg">
<path fill-rule="evenodd" clip-rule="evenodd" d="M28 12.2274C28 12.819 27.5204 13.2986 26.9288 13.2986H26.9164C26.6313 13.2987 26.3581 13.1838 26.1588 12.9798C25.9595 12.7759 25.8509 12.5002 25.8575 12.2151V8.97672C25.8575 4.71639 23.5057 2.36459 19.2454 2.36459H8.75462C4.48197 2.36459 2.14248 4.71639 2.14248 8.97672V19.4798C2.14248 23.7401 4.49428 26.0796 8.75462 26.0796H19.2454C23.518 26.0796 25.8575 23.7278 25.8575 19.4798C25.8575 18.8882 26.3371 18.4086 26.9288 18.4086C27.5204 18.4086 28 18.8882 28 19.4798C28 24.8729 24.6508 28.2221 19.2577 28.2221H8.75462C3.34916 28.2221 0 24.8729 0 19.4798V8.97672C0 3.57127 3.34916 0.222107 8.75462 0.222107H19.2454C24.6262 0.222107 28 3.57127 28 8.97672V12.2274ZM6.94459 20.785V11.9072V11.8211C6.95416 11.5379 7.07677 11.2704 7.28502 11.0784C7.49327 10.8863 7.7698 10.7857 8.05277 10.7991C8.33694 10.8087 8.60562 10.9309 8.79963 11.1388C8.99363 11.3466 9.09704 11.6231 9.08707 11.9072V20.8589C9.06667 21.4505 8.57052 21.9136 7.97889 21.8932C7.38726 21.8728 6.92419 21.3766 6.94459 20.785ZM12.978 7.67154V20.7973C12.978 21.3889 13.4576 21.8685 14.0493 21.8685C14.6409 21.8685 15.1205 21.3889 15.1205 20.7973V7.67154C15.1205 7.07991 14.6409 6.6003 14.0493 6.6003C13.4576 6.6003 12.978 7.07991 12.978 7.67154ZM18.9129 20.785V16.5985C18.9129 16.0069 19.3925 15.5273 19.9842 15.5273C20.5758 15.5273 21.0554 16.0069 21.0554 16.5985V20.785C21.0554 21.3766 20.5758 21.8562 19.9842 21.8562C19.3925 21.8562 18.9129 21.3766 18.9129 20.785Z" fill="currentColor"/>
</svg>
