<svg width="28" height="28" viewBox="0 0 28 28" fill="none" xmlns="http://www.w3.org/2000/svg">
<path fill-rule="evenodd" clip-rule="evenodd" d="M25.779 17.7741C24.851 16.9587 23.7256 16.2542 22.4338 15.6801C21.8816 15.4349 21.2354 15.6836 20.9902 16.2356C20.7449 16.7876 20.9936 17.4338 21.5456 17.6792C22.6349 18.1633 23.5735 18.748 24.3351 19.4173C25.274 20.2423 25.8125 21.4369 25.8125 22.6953V24.7188C25.8125 25.3218 25.3218 25.8125 24.7188 25.8125H3.28125C2.67819 25.8125 2.1875 25.3218 2.1875 24.7188V22.6953C2.1875 21.4369 2.72604 20.2423 3.66492 19.4173C4.76999 18.4461 7.98972 16.1875 14 16.1875C18.4628 16.1875 22.0938 12.5565 22.0938 8.09375C22.0938 3.63095 18.4628 0 14 0C9.5372 0 5.90625 3.63095 5.90625 8.09375C5.90625 10.7027 7.1474 13.0269 9.07001 14.508C5.55206 15.2813 3.36371 16.7698 2.22104 17.7741C0.809631 19.0142 0 20.8077 0 22.6953V24.7188C0 26.5281 1.47186 28 3.28125 28H24.7188C26.5281 28 28 26.5281 28 24.7188V22.6953C28 20.8077 27.1904 19.0142 25.779 17.7741ZM8.09375 8.09375C8.09375 4.83707 10.7433 2.1875 14 2.1875C17.2567 2.1875 19.9062 4.83707 19.9062 8.09375C19.9062 11.3504 17.2567 14 14 14C10.7433 14 8.09375 11.3504 8.09375 8.09375Z" fill="currentColor"/>
</svg>
